<svg id="4bed1cad-de81-4ddf-85b7-13f12ccde9f1" data-name="Livello 1" xmlns="http://www.w3.org/2000/svg" viewBox="0 0 546.55 525.33"><title>XSpaceSoft_Logo_Black_SVG</title><path d="M311.19,256.11c0.75-.12,1.5-0.29,2.26-0.35,12.41-.93,24.59.13,36.27,4.69,18,7,29.11,20.27,34.63,38.49a83.15,83.15,0,0,1,2.25,40.18c-5.23,27.59-14,53.91-27.45,78.62-2.9,5.35-6.22,10.49-9.6,15.56-6,8.95-11.85,18-18.23,26.59a221.2,221.2,0,0,1-42,42.76,284.67,284.67,0,0,1-96.19,49.59c-19.07,5.57-38.48,8.86-58.44,7.88-10.12-.5-20-2.26-29.35-6.36q-25.58-11.22-29.08-39c-1.51-12,.22-23.76,3.29-35.35,4.59-17.32,12-33.51,20.42-49.23,12.43-23.08,27.16-44.66,42.85-65.61,3.77-5,7.66-10,11.51-15,0.59-.76,1.23-1.48,2.06-2.48,0.19,1.48-.68,2.18-1.18,3a381.77,381.77,0,0,0-25,44.53c-6,12.93-11.14,26.18-14,40.22-1.89,9.46-2.78,19-1.15,28.57,3.1,18.33,14,29.64,31.46,35.1,8.41,2.63,17.08,3.25,25.85,3,16.34-.46,32-4.22,47.23-9.94,26.46-9.94,50.11-24.43,69.91-44.71,17.82-18.25,34.41-37.56,47.53-59.61,9.94-16.72,18.45-34.08,23.1-53a78.88,78.88,0,0,0,1.84-30.55c-1.93-13-8.36-23.35-18.55-31.49-8.84-7.06-19-11.45-29.68-14.87-0.82-.26-1.64-0.5-2.47-0.75Z" transform="translate(-24.37 -34.97)"/><path d="M443,440.14c1,0.57,2,1.13,2.94,1.7,14.27,8.41,28.75,16.4,44.14,22.63,6.29,2.54,12.68,4.84,19.42,5.81a43.21,43.21,0,0,0,9.53.36c7.07-.57,11.15-4.89,11.85-12,0.56-5.78-.5-11.38-1.94-16.92-2.88-11.12-7.77-21.44-12.74-31.74a176.38,176.38,0,0,0-19.51-31.23c-12.51-16.16-25-32.31-37.75-48.29C447.37,316,434,303.37,420.21,291.11a532.09,532.09,0,0,0-74.5-55.43,110.5,110.5,0,0,0-36.92-14.12,30.09,30.09,0,0,0-9.81-.14c-5.13.7-8.37,4.18-10.45,8.74a35.27,35.27,0,0,0-3,11.48c-0.33,3.66-.45,7.34-0.67,11l-0.09,1.58-0.47.11c-0.4-.82-0.87-1.62-1.19-2.47-2.87-7.62-5.41-15.34-6.59-23.43a41.57,41.57,0,0,1,.17-14.44c1.63-8,7.39-14,17.14-15.4,9.32-1.38,18.28.42,27.12,3.34,16.06,5.3,30.3,14.12,44.67,22.72,31.84,19,60.36,42.34,87,68a587,587,0,0,1,70.94,82.13c12.05,16.88,23.28,34.3,32.62,52.85,5.37,10.65,10,21.6,12.73,33.28,1.52,6.63,2.46,13.3,1.54,20.16C569,492.89,562,499.7,550.26,501c-7.58.81-14.86-.61-22-2.75-12.82-3.83-24.49-10.09-35.72-17.22-17.66-11.21-33.56-24.62-48.54-39.16-0.45-.44-0.84-0.93-1.25-1.4Z" transform="translate(-24.37 -34.97)"/><path d="M292.54,286c-4.61-.28-9.24-0.37-13.83-0.88a79.66,79.66,0,0,1-30.59-9.44C228.34,264.54,218,247.45,217,224.89c-1-21.81,5.25-41.61,17.39-59.73,9.71-14.5,21.74-26.7,35.42-37.37,18.92-14.76,39.43-26.66,62.35-34.13A129.37,129.37,0,0,1,377,87.08c27.19,0.93,52.78,19.6,61.16,44.79,4.58,13.76,3.86,27.49-.5,41.11-4.43,13.84-12,26-21.07,37.18a8.14,8.14,0,0,1-1.07.73c0.52-1.32.81-2.12,1.15-2.9a107.26,107.26,0,0,0,8.15-26.27c1.5-9.28,1.56-18.55-1.12-27.64-4.8-16.26-15.75-26.77-31.33-32.69-10.7-4.06-21.82-5-33.17-3.85a86.14,86.14,0,0,0-29.39,8.54c-17.06,8.28-33.34,17.86-47.52,30.51-14.62,13-26.3,28.4-33.61,46.77-5.31,13.35-5.52,27-1.85,40.78,3.77,14.11,12.8,24.16,25.31,31.13,5.82,3.24,12,5.79,18,8.65,0.84,0.4,1.69.75,2.54,1.13Z" transform="translate(-24.37 -34.97)"/><path d="M152.32,96c-1-.57-2-1.13-2.94-1.7-14.27-8.41-28.75-16.4-44.14-22.63C99,69.15,92.57,66.85,85.83,65.88a43.21,43.21,0,0,0-9.53-.36c-7.07.57-11.15,4.89-11.85,12-0.56,5.78.5,11.38,1.94,16.92,2.88,11.12,7.77,21.44,12.74,31.74a176.38,176.38,0,0,0,19.51,31.23c12.51,16.16,25,32.31,37.75,48.29,11.51,14.44,24.92,27.07,38.67,39.33a532.09,532.09,0,0,0,74.5,55.43,110.5,110.5,0,0,0,36.92,14.12,30.09,30.09,0,0,0,9.81.14c5.13-.7,8.37-4.18,10.45-8.74a35.27,35.27,0,0,0,3-11.48c0.33-3.66.45-7.34,0.67-11l0.09-1.58,0.47-.11c0.4,0.82.87,1.62,1.19,2.47,2.87,7.62,5.41,15.34,6.59,23.43a41.57,41.57,0,0,1-.17,14.44c-1.63,8-7.39,14-17.14,15.4-9.32,1.38-18.28-.42-27.12-3.34-16.06-5.3-30.3-14.12-44.67-22.72-31.84-19-60.36-42.34-87-68a587,587,0,0,1-70.94-82.13C59.57,144.48,48.35,127.06,39,108.51c-5.37-10.65-10-21.6-12.73-33.28-1.52-6.63-2.46-13.3-1.54-20.16C26.31,43.27,33.24,36.46,45,35.2c7.58-.81,14.86.61,22,2.75C79.88,41.78,91.55,48,102.78,55.17c17.66,11.21,33.56,24.62,48.54,39.16,0.45,0.44.84,0.93,1.25,1.4Z" transform="translate(-24.37 -34.97)"/></svg>